<svg width="25" height="25" viewBox="0 0 25 25" fill="none" xmlns="http://www.w3.org/2000/svg">
<g clip-path="url(#clip0)">
<path d="M10.4625 24.7219L10.7452 24.7214C11.1355 24.7207 11.4516 24.4035 11.451 24.0133L11.4368 15.7677L16.5831 23.9479C16.7901 24.2783 17.2286 24.3765 17.559 24.1696L17.7991 24.0193C18.1296 23.8123 18.2278 23.3739 18.0208 23.0433L12.35 14.0328C12.5897 13.6874 12.7275 13.2658 12.7267 12.8134C12.726 12.3581 12.581 11.9342 12.3401 11.5868L8.45929 12.5492C8.44814 12.6397 8.44261 12.7302 8.44277 12.8235C8.44355 13.276 8.58565 13.6942 8.82378 14.0416L3.18392 23.0717C2.97807 23.4029 3.07779 23.8382 3.40899 24.0468L3.6496 24.1963C3.98079 24.4022 4.41609 24.3025 4.62477 23.9713L9.74015 15.7706L9.75434 24.0162C9.75501 24.4064 10.0723 24.7226 10.4625 24.7219Z" fill="#42D7F8"/>
<path d="M2.00028 12.1644C2.03138 12.1643 5.30164 11.3613 5.30164 11.3613C4.91882 10.7314 4.59508 9.92602 4.38435 9.06677C4.17078 8.20186 4.08448 7.34522 4.13128 6.60711L0.920382 7.39873C0.405962 7.52686 0.249616 8.69214 0.574234 10.0065C0.876123 11.2416 1.49698 12.1652 2.00028 12.1644Z" fill="#42D7F8"/>
<path d="M10.0736 4.04637L5.70381 5.12276C5.5427 5.16263 5.40434 5.27314 5.29435 5.443C5.20974 5.57322 5.13933 5.73734 5.08594 5.92972C5.04659 6.06834 5.01857 6.22109 4.99907 6.38795C4.91539 7.06109 4.97628 7.93474 5.20691 8.859C5.43472 9.78327 5.78673 10.5858 6.17226 11.1421C6.26864 11.2805 6.36499 11.4019 6.46414 11.5064C6.60012 11.6532 6.73887 11.7661 6.87473 11.8422C7.0021 11.9127 7.12941 11.952 7.251 11.9518C7.29624 11.9517 7.34148 11.946 7.38387 11.9346L11.5558 10.9066L11.7734 10.8526C11.1329 9.98557 10.6331 8.77335 10.3341 7.56361C10.0266 6.31712 9.93115 5.08441 10.0624 4.09449C10.068 4.08032 10.0708 4.06335 10.0736 4.04637Z" fill="#42D7F8"/>
<path d="M24.1849 7.9752L22.408 0.767639C22.3283 0.445419 22.0395 0.228183 21.7199 0.228733C21.6634 0.22883 21.6068 0.234583 21.5503 0.248819L11.7876 2.65785C11.6717 2.68632 11.5672 2.74306 11.4712 2.82805C11.3329 2.94988 11.2144 3.12823 11.1215 3.35178C11.0623 3.49326 11.0145 3.6517 10.9753 3.82425C10.776 4.70684 10.8235 5.99053 11.1623 7.36421C11.5097 8.76897 12.0829 9.94996 12.6836 10.6304C12.8054 10.766 12.9272 10.8845 13.0489 10.9776C13.0801 11.003 13.1169 11.0256 13.1537 11.0453C13.4254 11.2003 13.7507 11.2422 14.0559 11.1653L23.6689 8.82723C24.0476 8.73609 24.2788 8.35395 24.1849 7.9752Z" fill="#42D7F8"/>
</g>
<defs>
<clipPath id="clip0">
<rect width="24.4737" height="24.4737" fill="white" transform="translate(0.0544434 0.265991) rotate(-0.0985787)"/>
</clipPath>
</defs>
</svg>
